<svg version="1.1" id="Layer_1" xmlns="http://www.w3.org/2000/svg" xmlns:xlink="http://www.w3.org/1999/xlink" x="0px" y="0px"
	 width="100%" viewBox="0 0 496 496" enable-background="new 0 0 496 496" xml:space="preserve">
<path fill="#000000" opacity="1.000000" stroke="none" 
	d="
M154.335449,217.113525 
	C153.275772,217.449707 152.560699,218.206970 151.184326,216.819321 
	C161.254547,207.374680 174.420776,209.908539 186.184357,206.849808 
	C182.204651,206.243500 178.224930,205.637192 173.045166,204.848053 
	C179.672180,201.452896 185.782074,200.272690 191.768814,198.771545 
	C193.699875,198.287338 195.688766,198.237457 196.826675,196.151138 
	C204.214218,182.606445 216.789261,177.292557 231.050812,174.671692 
	C235.324402,173.886322 239.648010,173.265762 243.959152,173.777374 
	C247.623703,174.212219 250.287674,171.517120 253.952560,171.532669 
	C277.372986,171.632111 297.771545,180.124207 316.573212,193.310242 
	C325.536835,199.596634 333.110352,207.294067 338.952362,216.555679 
	C341.120239,219.992523 345.111176,220.355011 347.806793,222.777405 
	C348.885254,223.746552 350.461395,224.267853 350.670135,226.297409 
	C349.012146,228.367493 342.961121,226.701660 344.891693,232.058884 
	C345.818512,234.630630 347.808044,236.335114 350.686981,233.142563 
	C352.350983,238.477692 354.950897,243.142242 349.455963,247.206726 
	C347.779510,248.446762 348.443390,250.596725 348.326019,252.382492 
	C347.943054,258.208527 346.633240,263.687134 342.013855,268.091705 
	C342.422241,265.577179 342.791687,263.055542 343.246429,260.549438 
	C344.551788,253.355988 343.577148,252.340179 336.618683,253.753311 
	C335.220978,252.524353 335.908691,250.559448 334.664429,248.618698 
	C332.514801,254.369095 329.241638,258.955750 323.610535,261.091461 
	C317.902435,263.256378 312.076660,263.340942 306.835510,259.886597 
	C298.324402,254.277054 293.688538,243.511108 303.609344,230.007217 
	C291.697113,228.275452 247.698380,226.840942 242.830887,228.100143 
	C243.019867,232.773926 246.453018,235.994797 249.057693,240.541626 
	C244.174057,239.439972 241.376709,236.585770 239.550095,233.593750 
	C234.827377,225.857819 227.651566,223.954346 219.424911,223.172348 
	C212.865982,222.548874 206.383865,221.117294 199.886505,219.345230 
	C227.727676,219.151505 255.575516,221.016983 283.430542,218.153992 
	C270.928864,211.031937 257.572693,207.021820 243.650970,205.317413 
	C242.081100,208.352798 244.452896,210.465576 243.580872,213.114441 
	C240.965683,212.437775 239.821136,210.201050 239.100037,208.289230 
	C237.781937,204.794495 235.326492,204.388092 232.116791,204.042160 
	C224.283905,203.197983 216.512878,203.575912 208.719498,204.273254 
	C207.223129,204.407150 205.723053,204.423904 204.191803,205.645798 
	C206.223892,208.466949 210.366180,207.995255 212.382568,210.973038 
	C210.805634,212.647385 208.989471,211.770554 207.291916,211.687744 
	C192.147049,210.948898 177.020615,210.705704 162.133057,214.269318 
	C159.570129,214.882812 157.140915,216.054916 154.335449,217.113525 
M207.982758,196.093414 
	C235.694931,192.731125 261.960449,197.713959 287.072540,210.713165 
	C286.937866,208.413208 285.737976,207.950638 284.910339,207.190323 
	C284.108826,206.453995 282.733765,206.066864 283.398438,204.132767 
	C293.925232,204.521194 304.160095,206.316040 313.875336,210.929169 
	C312.942047,212.928253 311.264069,211.422745 310.210144,212.503754 
	C313.548187,213.741058 316.644440,215.344818 320.790375,214.273300 
	C313.541779,207.062851 305.632935,201.539658 297.295990,196.992798 
	C295.065247,197.916550 294.235870,200.463165 291.795166,200.403137 
	C291.074829,198.041962 294.397400,195.580826 291.128387,193.896957 
	C288.322632,192.451736 285.551941,190.693436 282.548462,189.942886 
	C279.222046,189.111588 278.898621,194.391769 275.539551,194.406921 
	C274.402283,192.143921 277.338104,190.324585 275.800232,187.807175 
	C270.032227,185.761810 263.928253,181.350128 258.948425,189.898315 
	C257.311798,187.421494 259.481628,185.780258 258.667938,183.682343 
	C252.804382,181.107056 247.112854,179.983032 242.501450,186.740677 
	C242.609238,185.135452 242.717010,183.530212 242.841385,181.677948 
	C236.714233,181.192642 230.628220,179.587402 227.099213,186.321884 
	C225.244751,185.306641 227.059021,183.792984 225.176346,182.478394 
	C216.571198,185.760376 206.635269,187.383041 199.585846,195.962006 
	C202.602417,197.136536 204.871460,196.642914 207.982758,196.093414 
z"/>
<path fill="#000000" opacity="1.000000" stroke="none" 
	d="
M209.361328,231.546875 
	C232.587631,241.741562 256.434753,247.787354 281.442108,245.336609 
	C291.023254,244.397644 296.442230,246.246246 298.926605,255.495728 
	C299.205994,256.535919 299.944031,257.452942 301.175934,259.737244 
	C282.252747,257.896057 264.471863,256.166016 246.690964,254.435974 
	C246.718872,254.002670 246.746765,253.569366 246.774673,253.136063 
	C251.953354,251.987869 257.234070,253.172409 262.444458,252.749023 
	C247.279755,250.015320 224.881042,250.840515 206.517838,254.900162 
	C203.876038,255.484192 201.466248,256.139221 201.250885,251.489944 
	C196.662476,258.317322 191.297882,262.699432 183.111252,262.405426 
	C174.846344,262.108643 169.614059,257.636505 165.813858,250.061600 
	C165.326782,251.818604 165.007858,252.969040 164.676468,254.164490 
	C163.942154,254.097366 163.320282,254.233795 163.014130,253.983719 
	C158.075775,249.949890 153.809525,245.283066 150.854050,239.618820 
	C148.219482,234.569626 149.479340,229.632843 154.205872,226.493454 
	C158.490768,223.647385 162.959076,221.051758 167.486725,218.605179 
	C170.932968,216.742981 174.601974,217.460861 178.146515,218.606827 
	C188.775665,222.043335 198.541321,227.564636 209.361328,231.546875 
z"/>
<path fill="#000000" opacity="1.000000" stroke="none" 
	d="
M193.871384,293.874817 
	C197.624908,291.773651 201.483688,292.696930 205.208054,292.812164 
	C208.781982,292.922791 208.131912,295.931702 207.551712,298.085297 
	C206.563934,301.751648 199.069519,304.573151 193.194717,303.755402 
	C186.443787,302.815674 182.941238,299.723053 182.665741,294.535858 
	C182.423798,289.980438 184.449097,286.908386 188.629593,285.213959 
	C193.985413,283.043152 199.397507,283.721008 204.764038,285.087189 
	C207.787506,285.856903 207.844727,288.115540 207.076828,290.651184 
	C204.841263,291.922638 203.398865,289.768982 201.573593,289.354309 
	C198.646332,288.689240 195.787628,287.834412 192.799805,289.101624 
	C190.318039,290.154175 188.257446,291.713776 188.791077,294.612823 
	C189.289215,297.319183 191.367859,298.815491 194.216446,298.838013 
	C195.948013,298.851715 197.801697,299.356781 199.464951,297.953644 
	C197.674561,296.384674 193.403870,298.790802 193.871384,293.874817 
z"/>
<path fill="#000000" opacity="1.000000" stroke="none" 
	d="
M95.605576,288.629028 
	C93.909004,288.645538 92.550430,288.572968 91.293091,288.895294 
	C88.317215,289.658081 85.920509,291.192993 86.488319,294.756348 
	C87.008881,298.023224 89.640564,298.768951 92.464096,298.887329 
	C94.084473,298.955231 95.764030,299.096039 97.274269,298.177979 
	C97.097160,297.892822 96.998810,297.507843 96.790588,297.434357 
	C94.757690,296.717163 90.854546,298.772522 91.161697,294.688690 
	C91.410164,291.385376 94.856728,293.043335 96.918045,292.706604 
	C98.214272,292.494873 99.576721,292.604340 100.902901,292.681854 
	C102.488647,292.774567 104.487625,292.273102 105.046135,294.472260 
	C105.553535,296.470123 105.273026,298.385132 103.762772,300.047699 
	C99.209351,305.060303 86.724777,305.067169 82.262108,300.007111 
	C78.330002,295.548645 79.444511,288.789154 84.706421,285.955750 
	C90.539047,282.814972 96.597046,283.503967 102.620186,285.350250 
	C105.330345,286.180969 105.507225,288.141357 104.623672,290.659821 
	C101.416725,291.068329 98.915680,288.845367 95.605576,288.629028 
z"/>
<path fill="#000000" opacity="1.000000" stroke="none" 
	d="
M231.662994,285.840302 
	C232.356354,289.244415 230.475662,289.319885 228.225464,289.384705 
	C224.716507,289.485809 221.123627,288.010681 217.221130,289.703064 
	C219.473343,293.015686 222.474319,291.382965 224.968781,291.709137 
	C226.882355,291.959381 229.926956,290.295929 230.065750,293.765167 
	C230.224396,297.730865 226.849686,295.954346 224.844315,296.235596 
	C222.515793,296.562164 219.957367,295.546326 217.392197,297.451904 
	C220.678253,300.173950 224.018082,298.389587 227.101761,298.648315 
	C228.857880,298.795685 231.558487,297.190033 231.877457,300.415680 
	C232.212769,303.806488 229.380737,303.291534 227.310364,303.332581 
	C223.479935,303.408569 219.639755,303.210785 215.817169,303.400208 
	C212.248199,303.577057 210.834091,302.353912 210.776062,298.567169 
	C210.562973,284.666382 210.441025,284.633484 224.150940,284.712128 
	C226.597656,284.726166 229.157990,284.082977 231.662994,285.840302 
z"/>
<path fill="#000000" opacity="1.000000" stroke="none" 
	d="
M323.895477,293.998718 
	C323.840302,285.099731 323.837555,285.064850 332.072113,284.417206 
	C333.869904,284.275787 335.697510,284.436401 337.506958,284.536835 
	C340.718170,284.715057 343.897156,285.077911 345.416473,288.543213 
	C347.035126,292.235107 343.666077,293.760742 341.939514,295.993561 
	C342.853760,298.339966 345.610901,299.510132 345.762604,302.652435 
	C342.713928,303.498199 339.882812,304.602112 338.008972,300.571747 
	C337.038391,298.484192 335.242523,297.343353 332.814728,297.378784 
	C330.033325,297.419373 330.475708,299.629242 330.101593,301.305511 
	C329.668243,303.247192 328.162872,303.297028 326.614655,303.266998 
	C324.771240,303.231201 323.905365,302.217133 323.880432,300.449890 
	C323.852417,298.462006 323.887329,296.473206 323.895477,293.998718 
M336.637299,288.803558 
	C335.664093,288.691315 334.686859,288.461182 333.718628,288.494354 
	C332.264465,288.544220 330.523651,288.459503 330.460754,290.589752 
	C330.396759,292.756042 332.117035,292.765503 333.591003,292.770508 
	C334.889160,292.774933 336.341064,292.843353 337.454407,292.314117 
	C339.647552,291.271545 339.574280,289.982483 336.637299,288.803558 
z"/>
<path fill="#000000" opacity="1.000000" stroke="none" 
	d="
M363.770142,301.539795 
	C359.574554,295.868835 357.666656,295.933014 355.225403,301.629517 
	C354.523285,303.267761 353.355194,303.281372 352.017944,303.288605 
	C350.524963,303.296692 349.197815,302.735474 349.187469,301.126740 
	C349.156494,296.309174 349.268127,291.488037 349.452362,286.673187 
	C349.519165,284.926514 350.969666,284.674133 352.379059,284.699646 
	C355.865814,284.762726 359.302277,283.977600 362.843018,284.482483 
	C366.063782,284.941681 369.330658,285.075165 370.736572,288.604126 
	C372.204010,292.287598 368.985626,293.861542 366.922272,295.932922 
	C367.937958,298.396454 371.193237,299.361237 371.175690,302.726837 
	C368.573608,303.471008 366.130493,304.252441 363.770142,301.539795 
M356.513580,292.432404 
	C359.257294,292.637787 362.297913,294.030792 364.508301,290.468231 
	C362.062592,288.531036 359.592743,287.886597 356.909637,288.735474 
	C355.332855,289.234314 355.148743,290.556732 356.513580,292.432404 
z"/>
<path fill="#000000" opacity="1.000000" stroke="none" 
	d="
M148.687988,302.769165 
	C147.388458,300.831940 146.761215,298.755920 144.746933,297.975586 
	C142.317627,297.034485 139.632019,296.210785 139.365707,300.275696 
	C139.209732,302.656403 138.086838,303.448700 135.859573,303.293732 
	C133.321030,303.117096 132.840286,301.415497 133.178909,299.461823 
	C133.975281,294.867065 133.299240,290.227539 133.633850,285.317688 
	C139.252930,284.096649 144.785873,283.964020 150.319351,284.948212 
	C152.545105,285.344086 154.287781,286.753418 154.912964,289.038879 
	C155.857010,292.490112 153.088470,294.004211 150.982376,295.908569 
	C151.818115,298.412750 155.211273,299.297638 155.068008,302.632660 
	C153.164185,303.875214 151.080490,303.340363 148.687988,302.769165 
M139.603088,289.956116 
	C141.151245,293.645264 144.404510,293.996338 148.359283,290.696716 
	C145.824692,288.173462 143.098846,287.642029 139.603088,289.956116 
z"/>
<path fill="#000000" opacity="1.000000" stroke="none" 
	d="
M382.691467,284.198120 
	C386.114105,283.309784 389.034698,283.951691 391.928986,284.740784 
	C396.528076,285.994720 398.912781,289.244354 399.096436,293.803497 
	C399.277222,298.290985 396.744568,301.392578 392.592560,302.817566 
	C389.638763,303.831299 386.567078,304.412811 383.309357,303.697632 
	C376.867065,302.283264 373.964111,299.714661 373.694855,294.703430 
	C373.398102,289.180573 375.705231,286.392090 382.691467,284.198120 
M379.943542,293.027954 
	C380.393219,298.037994 382.933441,300.242645 387.484253,299.572510 
	C391.314850,299.008423 393.426178,296.136414 392.616364,292.591431 
	C391.845215,289.215424 387.692322,287.354614 383.761719,288.634766 
	C381.911743,289.237305 380.654205,290.433228 379.943542,293.027954 
z"/>
<path fill="#000000" opacity="1.000000" stroke="none" 
	d="
M162.217499,290.228607 
	C163.408676,286.342010 165.240417,284.514038 169.436295,284.507996 
	C173.688385,284.501892 174.754593,286.913300 175.834442,289.993195 
	C177.299301,294.171234 180.094406,297.831573 180.935074,302.540649 
	C178.543213,303.522827 176.429001,303.935852 174.398468,302.193970 
	C170.714020,299.033234 167.029205,299.098969 163.373230,302.199280 
	C161.449829,303.830383 159.498505,303.587219 156.948196,302.321350 
	C158.661163,298.374420 160.352783,294.476715 162.217499,290.228607 
M168.819092,290.446991 
	C167.723190,291.869507 166.693497,293.313538 167.148743,295.263184 
	C168.485413,295.937042 169.684921,296.110535 170.836624,295.015991 
	C170.978394,293.275055 170.342957,291.809540 168.819092,290.446991 
z"/>
<path fill="#000000" opacity="1.000000" stroke="none" 
	d="
M128.479950,296.596497 
	C129.375458,298.754395 130.723221,300.396362 130.252487,302.538666 
	C125.447250,305.998566 122.947220,299.645966 118.485367,299.841583 
	C114.373573,300.021851 111.904327,305.980408 106.765823,302.108826 
	C109.007706,296.977173 111.092873,291.579529 113.707916,286.452179 
	C115.281502,283.366821 122.660522,283.921356 124.311836,287.119293 
	C125.834496,290.068054 127.001472,293.200500 128.479950,296.596497 
M120.732491,294.035431 
	C120.134827,292.779053 120.217735,291.138550 118.675316,290.298340 
	C117.489708,291.783356 116.631836,293.263611 117.108521,295.250336 
	C118.508881,295.693146 119.896660,296.594940 120.732491,294.035431 
z"/>
<path fill="#000000" opacity="1.000000" stroke="none" 
	d="
M319.298950,296.735107 
	C320.101959,298.903290 321.614716,300.476990 321.100647,302.617676 
	C316.430420,305.778870 313.870361,300.223846 309.830566,299.891602 
	C305.409912,299.528076 303.104218,305.632233 297.556274,302.106110 
	C299.894104,296.817535 302.014679,291.157257 304.877838,285.901520 
	C306.347687,283.203400 313.765808,284.366699 315.184998,287.249847 
	C316.650208,290.226532 317.847260,293.335175 319.298950,296.735107 
M310.816833,292.132416 
	C308.710938,290.419037 308.710938,290.419037 307.796814,295.221680 
	C310.036469,295.779663 312.109894,296.444031 310.816833,292.132416 
z"/>
<path fill="#000000" opacity="1.000000" stroke="none" 
	d="
M295.025909,294.786499 
	C292.748047,297.492371 289.861816,297.778564 287.065460,298.077759 
	C284.313080,298.372284 281.335022,297.695770 280.794403,301.930115 
	C280.564301,303.732422 278.416107,303.278992 276.953491,303.190125 
	C275.229370,303.085388 274.771606,301.871307 274.766510,300.422119 
	C274.751221,296.092651 274.782562,291.763062 274.797180,287.433502 
	C274.803497,285.562714 275.819702,284.790863 277.613434,284.708344 
	C281.594635,284.525146 285.551636,284.060120 289.559479,284.643433 
	C295.494934,285.507416 297.253540,288.402679 295.025909,294.786499 
M286.932281,293.693787 
	C288.336212,293.466919 289.517548,292.939331 289.562073,291.289215 
	C289.600983,289.845001 288.489624,289.377106 287.355225,289.013184 
	C285.604065,288.451385 283.812256,287.985138 282.142334,289.143555 
	C281.039490,289.908600 280.915771,291.202423 281.391479,292.268555 
	C282.354431,294.426788 284.408020,293.758911 286.932281,293.693787 
z"/>
<path fill="#000000" opacity="1.000000" stroke="none" 
	d="
M247.361053,285.227600 
	C249.348923,289.242188 250.990372,293.035767 252.702103,296.991821 
	C257.796814,294.170563 254.502640,283.353638 264.823456,285.145111 
	C262.403198,290.971863 260.400696,296.402405 257.890045,301.586853 
	C256.582550,304.286835 249.639435,304.275665 248.367722,301.607666 
	C245.893661,296.417328 243.874115,291.010284 241.715088,285.810547 
	C243.746384,284.384552 245.376907,284.658569 247.361053,285.227600 
z"/>
<path fill="#000000" opacity="1.000000" stroke="none" 
	d="
M410.033386,284.657471 
	C413.840515,284.695435 417.160400,284.699738 420.478607,284.775757 
	C421.816132,284.806396 422.665894,285.503265 422.649841,286.939056 
	C422.634155,288.339691 421.798706,289.288055 420.491913,289.117340 
	C412.367249,288.055878 414.373718,293.933807 414.434753,298.141144 
	C414.490387,301.974152 414.007782,304.560516 409.066040,302.796570 
	C408.025665,299.663116 408.816772,296.341400 408.702972,293.088013 
	C408.611511,290.472473 407.841125,289.016296 404.939636,289.128967 
	C403.096252,289.200500 400.376709,289.930603 400.432098,286.851746 
	C400.488037,283.739502 403.307617,284.917267 405.067505,284.702545 
	C406.540253,284.522888 408.051331,284.657288 410.033386,284.657471 
z"/>
<path fill="#000000" opacity="1.000000" stroke="none" 
	d="
M267.581116,303.283936 
	C265.158844,301.257904 266.123779,299.963257 268.206207,299.240936 
	C269.790192,298.691467 271.435638,299.393677 271.602661,301.068268 
	C271.869843,303.746979 269.789307,303.616547 267.581116,303.283936 
z"/>
</svg>